<?xml version="1.0" encoding="UTF-8"?><svg id="Capa_1" xmlns="http://www.w3.org/2000/svg" viewBox="0 0 687.33 169.26"><defs><style>.cls-1{fill:#ff9100;}.cls-1,.cls-2{stroke-width:0px;}.cls-2{fill:#1fab5c;}</style></defs><circle class="cls-1" cx="90.88" cy="20.63" r="20.63"/><path class="cls-2" d="M125.5,49.4c-.85.32-1.94,1.07-3.53,2.32-11.47,8.96-19.3,21.39-23.89,35.85.58,2.84,1.07,6.73,1.43,11.13.72,8.78.93,19.59.27,28.13,7.01-29.33,28.76-49.16,40.71-53.74-4.16-8.13-9.15-16.28-14.99-23.69Z"/><path class="cls-1" d="M113.67,36.63c-3.44,2.55-8.05,7.36-10.95,12.3-4.96,8.43-8.06,17.82-5.56,32.7,1.2-10.08,15.29-29.92,26.06-35.04-2.98-3.55-6.16-6.9-9.54-9.96Z"/><path class="cls-2" d="M92.55,147.9c7.93-32.38,3.7-115.7-55.2-127.96-7.7-1.6-14.67,3.69-17.85,6.9-6.91,6.98-11.5,11.63-19.51,19.75,70.14,8.4,80.91,71.56,69.55,114.1,8.38-3.53,16.95-7.83,23.01-12.79Z"/><path class="cls-2" d="M253.58,129.67c-.25-.39-.8-.47-1.13-.15-3.01,2.96-7.9,4.75-12.71,4.75-7.72,0-16.35-5.24-16.35-16.73,0-9.83,6.88-17.09,16.07-17.09,5.14,0,10.33,1.88,13.53,5.53.32.37.89.36,1.17-.04l8.18-11.58c.39-.56.31-1.33-.22-1.77-5.64-4.67-13.58-7.86-23.04-7.86-18.01,0-33.17,13.88-33.17,32.72,0,17.65,14.05,32.44,33.63,32.44,7.96,0,15.28-2.79,20.93-6.98.55-.41.68-1.18.31-1.75l-7.22-11.5Z"/><path class="cls-2" d="M316.02,148.34h-13.05c-.64,0-.92-.37-.92-.83v-5.79c-1.56,4.78-7.35,7.26-12.96,7.26-12.31,0-21.69-8.82-21.69-23.9,0-13.88,9.74-23.71,21.41-23.71,6.25,0,11.03,3.68,12.41,7.26v-5.61c0-.83.18-1.1.74-1.1h14.15c.46,0,.64.37.64.83v44.3c0,1.01-.28,1.29-.74,1.29ZM292.03,115.71c-5.79,0-9.37,4.14-9.37,9.83s4.23,9.47,9.37,9.47,9.19-3.86,9.19-9.65-4.14-9.65-9.19-9.65Z"/><path class="cls-2" d="M346.99,149.99c-11.67,0-17.19-4.23-20.13-10.75-.18-.64-.18-1.19.28-1.38l10.02-3.86c.37-.09.74.09.83.37,1.01,2.76,4.04,4.96,7.44,4.96,4.14,0,5.97-1.65,5.97-3.68,0-2.48-1.93-3.77-9.01-5.51-8.73-2.21-14.8-5.33-14.8-14.52,0-9.65,7.9-15.07,20.68-15.07,10.2,0,16.27,3.86,18.1,9.93.09.55.09,1.1-.46,1.29l-10.2,3.58c-.55.28-.64.28-1.01-.28-1.56-2.48-3.95-4.14-6.98-4.14-3.58,0-5.15,1.19-5.15,3.22,0,1.84,2.11,2.76,10.02,4.32,9.19,1.93,15.53,5.79,15.53,14.43,0,10.29-7.72,17.09-21.14,17.09Z"/><path class="cls-2" d="M424.01,148.34h-13.05c-.64,0-.92-.37-.92-.83v-5.79c-1.56,4.78-7.35,7.26-12.96,7.26-12.31,0-21.69-8.82-21.69-23.9,0-13.88,9.74-23.71,21.41-23.71,6.25,0,11.03,3.68,12.41,7.26v-5.61c0-.83.18-1.1.74-1.1h14.15c.46,0,.64.37.64.83v44.3c0,1.01-.28,1.29-.74,1.29ZM400.02,115.71c-5.79,0-9.37,4.14-9.37,9.83s4.23,9.47,9.37,9.47,9.19-3.86,9.19-9.65-4.14-9.65-9.19-9.65Z"/><path class="cls-2" d="M453.37,148.26c-.42,0-.78-.25-.94-.64-2.03-5.21-12.19-31.34-17.23-44.23-.44-1.12-.55-1.47.37-1.47h15.9c.46,0,.83,0,1.01.64,3.42,11.18,7.63,25.93,7.63,25.93,0,0,4.13-15.03,7.26-25.65.18-.55.46-.92.92-.92h15.44c.83,0,.74.33.37,1.29-5.74,14.66-15.67,40.02-17.38,44.39-.15.39-.52.66-.94.66h-12.41Z"/><path class="cls-2" d="M533.27,127.94c-.18.92-.46,1.1-1.84,1.1h-27.48c.09,4.96,3.95,8.09,9.37,8.09,4.32,0,7.26-2.76,8.82-4.6.28-.37.83-.18,1.29.46,1.93,2.67,4.5,6.34,6.34,9.19.55.83.28,1.47-.46,2.11-2.85,2.48-9.19,5.42-16.27,5.42-13.97,0-24.17-9.19-24.17-24.81,0-13.97,9.28-24.17,24.17-24.17,11.3,0,20.77,8,20.77,20.95,0,3.22-.18,4.69-.55,6.25ZM511.67,113.14c-5.05,0-7.26,3.95-7.72,7.81h15.53c-.37-4.87-3.12-7.81-7.81-7.81Z"/><path class="cls-2" d="M578.32,102.58c.09-.33-.1-.68-.43-.77-1.46-.38-3.14-.56-4.78-.56-4.67,0-11.67,1.69-13.6,6.28v-4.5c0-1.1-.09-1.1-.74-1.1h-13.69q-.74,0-.74,1.1v44.02c0,1.29.09,1.29.74,1.29h14.15c.55,0,.73-.18.73-1.01v-20.13c0-12.6,6.49-12.63,9.34-12.63,1.93,0,3.82.85,4.55,1.47.29.25.76-.02.86-.39l3.6-13.08Z"/><path class="cls-2" d="M630.5,148.43h-12.77c-.83,0-1.01-.37-1.01-1.47v-2.67c-2.39,3.31-7.08,4.69-11.76,4.69-13.51,0-22.15-8.64-22.15-23.9s9.19-23.71,21.69-23.71c4.5,0,9.47,1.84,11.76,4.69v-20.13c0-1.01.09-1.19.74-1.19h13.79c.64,0,.73,0,.73,1.29v60.93c0,1.1-.28,1.47-1.01,1.47ZM607.35,115.71c-5.05,0-9.28,3.68-9.28,9.56s4.04,9.74,9.56,9.74c5.05,0,9.01-3.77,9.01-9.65s-4.14-9.65-9.28-9.65Z"/><path class="cls-2" d="M686.77,127.94c-.18.92-.46,1.1-1.84,1.1h-27.48c.09,4.96,3.95,8.09,9.37,8.09,4.32,0,7.26-2.76,8.82-4.6.28-.37.83-.18,1.29.46,1.93,2.67,4.5,6.34,6.34,9.19.55.83.28,1.47-.46,2.11-2.85,2.48-9.19,5.42-16.27,5.42-13.97,0-24.17-9.19-24.17-24.81,0-13.97,9.28-24.17,24.17-24.17,11.3,0,20.77,8,20.77,20.95,0,3.22-.18,4.69-.55,6.25ZM665.18,113.14c-5.05,0-7.26,3.95-7.72,7.81h15.53c-.37-4.87-3.12-7.81-7.81-7.81Z"/><path class="cls-1" d="M239.16,52.72c-.05.08-.2.12-.47.12h-24.84c-.26,0-.42-.04-.49-.12-.07-.08-.1-.27-.1-.56V20.11c0-.23.02-.37.05-.42.03-.05.2-.07.49-.07h24.45c.26,0,.42.03.49.1.06.07.1.26.1.59v6.47c0,.26-.03.44-.1.54-.07.1-.23.15-.49.15h-13.67v4.31h13.33c.26,0,.42.04.49.12.06.08.1.27.1.56v7.45c0,.26-.03.43-.1.51-.07.08-.23.12-.49.12h-13.33v4.12h14.11c.26,0,.42.02.47.07.05.05.07.24.07.56v6.86c0,.29-.02.48-.07.56Z"/><path class="cls-1" d="M267.9,44.37c0,1.37-.34,2.64-1.03,3.8-.69,1.16-1.6,2.17-2.74,3.04-1.14.87-2.47,1.54-3.97,2.03-1.5.49-3.09.74-4.75.74-2.88,0-5.23-.51-7.06-1.52-1.83-1.01-3.15-2.4-3.97-4.17-.2-.26-.28-.42-.25-.49.03-.07.18-.13.44-.2l6.08-2.16c.16-.06.26-.08.29-.05.03.03.08.12.15.25.39.69.9,1.24,1.52,1.67.62.42,1.42.64,2.4.64,1.7,0,2.55-.51,2.55-1.52,0-.52-.23-.91-.69-1.15-.46-.25-1.32-.45-2.6-.61-.13-.03-.29-.06-.49-.07-.2-.02-.39-.04-.59-.07-.75-.03-1.62-.18-2.6-.44-.98-.26-1.9-.69-2.77-1.27-.87-.59-1.59-1.38-2.18-2.38-.59-1-.88-2.26-.88-3.8,0-1.44.29-2.74.86-3.92.57-1.18,1.37-2.18,2.4-3.01,1.03-.83,2.27-1.47,3.72-1.91,1.45-.44,3.08-.66,4.88-.66,2.87,0,5.18.49,6.91,1.47,1.73.98,2.86,2.29,3.38,3.92.07.23.09.38.07.44-.02.07-.11.13-.27.2l-6.12,2.01c-.16.07-.27.1-.32.1s-.14-.08-.27-.25c-.46-.65-.93-1.15-1.42-1.49-.49-.34-1.16-.51-2.01-.51s-1.46.13-1.84.39c-.38.26-.56.61-.56,1.03,0,.26.06.47.17.64.11.16.3.29.56.39.26.1.63.19,1.1.27.47.08,1.09.17,1.84.27.26.03.51.06.76.07s.5.04.76.07c1.27.2,2.43.48,3.48.86,1.05.38,1.94.88,2.7,1.52.75.64,1.33,1.44,1.74,2.4.41.96.61,2.12.61,3.46Z"/><path class="cls-1" d="M297.84,46.23c-.59,1.14-1.24,2.19-1.96,3.14-.72.95-1.56,1.76-2.52,2.45-.96.69-2.07,1.22-3.31,1.59-1.24.38-2.66.56-4.26.56-1.96,0-3.76-.29-5.39-.88-1.63-.59-3.04-1.45-4.21-2.57-1.18-1.13-2.09-2.51-2.74-4.14-.65-1.63-.98-3.51-.98-5.63,0-1.93.31-3.72.93-5.37.62-1.65,1.49-3.09,2.62-4.31s2.5-2.19,4.12-2.89,3.44-1.05,5.46-1.05c1.4,0,2.74.16,4.02.47s2.43.79,3.48,1.45c1.05.65,1.95,1.47,2.72,2.45.77.98,1.38,2.14,1.84,3.48.13.33.03.57-.29.73l-7.45,3.23c-.16.03-.29-.07-.39-.29-.33-.59-.78-1.08-1.35-1.47-.57-.39-1.32-.59-2.23-.59-1.11,0-2.01.4-2.7,1.2-.69.8-1.03,1.79-1.03,2.96,0,1.04.31,1.98.93,2.82.62.83,1.55,1.25,2.79,1.25,1.04,0,1.81-.2,2.3-.61.49-.41.91-.94,1.27-1.59.06-.16.15-.27.25-.32.1-.05.26-.02.49.07l7.2,2.99c.39.2.52.49.39.88Z"/><path class="cls-1" d="M330.08,52.75c-.03.07-.15.1-.34.1h-9.8c-.16,0-.28-.03-.34-.1s-.1-.25-.1-.54v-2.06c-.65,1.14-1.68,2.04-3.09,2.7-1.41.65-3.09.98-5.05.98-2.84,0-4.9-.78-6.17-2.35-1.27-1.57-1.91-3.72-1.91-6.47v-16.22c0-.33.02-.52.07-.59s.19-.1.42-.1h9.79c.2,0,.33.02.39.07.07.05.1.2.1.46v13.52c0,1.18.19,2.03.58,2.57s1.07.81,2.04.81c.58,0,1.08-.15,1.5-.44s.81-.72,1.17-1.27v-15.19c0-.36.13-.54.39-.54h9.95c.2,0,.32.02.37.07.05.05.07.24.07.56v23.47c0,.29-.02.47-.05.54Z"/><path class="cls-1" d="M361.79,38.78c0,.85-.02,1.56-.05,2.13-.03.57-.08,1.07-.15,1.5-.07.26-.16.42-.27.49-.11.07-.37.1-.76.1h-14.75c.06.69.42,1.31,1.08,1.86.65.56,1.55.83,2.69.83.91,0,1.71-.1,2.38-.29.67-.2,1.25-.46,1.74-.78.16-.16.38-.1.64.2.46.72,1.01,1.59,1.67,2.62.65,1.03,1.34,2.12,2.06,3.26.29.46.2.83-.29,1.13-.82.56-1.87,1.06-3.16,1.52-1.29.46-2.93.69-4.92.69s-3.86-.31-5.51-.93c-1.65-.62-3.06-1.52-4.24-2.7-1.18-1.18-2.08-2.6-2.72-4.29s-.96-3.57-.96-5.66.33-3.8.98-5.44c.65-1.63,1.57-3.04,2.74-4.21s2.6-2.08,4.26-2.72c1.67-.64,3.51-.96,5.54-.96,1.7,0,3.28.28,4.75.83s2.74,1.34,3.82,2.35c1.08,1.01,1.92,2.24,2.52,3.67.6,1.44.91,3.04.91,4.8ZM352.08,36.18c-.65-.52-1.55-.78-2.69-.78s-2,.29-2.57.88c-.57.59-.91,1.21-1,1.86h7.35c-.07-.78-.42-1.44-1.08-1.96Z"/><path class="cls-1" d="M377.86,52.84h-10c-.16,0-.27-.02-.32-.07s-.07-.25-.07-.61V19.23c0-.29.02-.47.05-.54.03-.07.13-.1.29-.1h10c.16,0,.28.03.34.1s.1.24.1.54v33.07c0,.36-.13.54-.39.54Z"/><path class="cls-1" d="M412.23,52.77s-.16.07-.32.07h-7.64c-.49,0-.74-.21-.74-.64v-2.01c-.72.88-1.68,1.67-2.89,2.35-1.21.69-2.7,1.03-4.46,1.03-1.67,0-3.22-.28-4.66-.83-1.44-.56-2.69-1.38-3.75-2.47-1.06-1.09-1.9-2.46-2.5-4.09-.61-1.63-.91-3.54-.91-5.73,0-1.96.28-3.74.83-5.34.56-1.6,1.35-2.98,2.38-4.14s2.25-2.05,3.67-2.67c1.42-.62,3-.93,4.73-.93,1.47,0,2.81.25,4.02.76,1.21.51,2.17,1.37,2.89,2.57v-2.01c0-.26.02-.42.07-.49s.17-.1.37-.1h8.62c.16,0,.26.03.29.1.03.07.05.23.05.49v23.47c0,.36-.02.56-.07.61ZM402.11,40.59c0-1.14-.34-2.08-1.03-2.82-.69-.74-1.6-1.1-2.74-1.1s-2.12.36-2.84,1.08-1.08,1.67-1.08,2.84c0,1.24.36,2.22,1.08,2.94s1.67,1.08,2.84,1.08,2.1-.36,2.77-1.08c.67-.72,1-1.7,1-2.94Z"/><rect class="cls-2" x="172.17" width="6" height="169.26"/></svg>